# xmcd
#
# Track frame offsets:
#	150
#	16684
#	30005
#	37603
#	51428
#	58351
#	67421
#	75953
#	90293
#	102135
#	113300
#	124295
#	135693
#	146075
#	158667
#	169622
#	185470
#	194080
#	202723
#	215648
#	224982
#	233446
#	267024
#	272257
#	302311
#
# Disc length: 4187 seconds
#
# Revision: 0
# Processed by: cddbd v1.5.2PL0 Copyright (c) Steve Scherf et al.
# Submitted via: EZCDAudioConverter 2.1.7.1
#
DISCID=4a105919
DTITLE=Henry Mancini - Classic Soundtrack Collection
DYEAR=1900
DGENRE=
TTITLE0=Overture
TTITLE1=Push The Button, Max!
TTITLE2=The Royal Waltz
TTITLE3=Night, Night Sweet Prince
TTITLE4=They're Off!
TTITLE5=The Sweetheart Tree [Choral]
TTITLE6=The Great Race March (A Patriotic Medley)
TTITLE7=He Shouldn't-A, Hadn't-A, Oughtn't-A Swang On Me!
TTITLE8=Music To Become King By
TTITLE9=Cold Finger
TTITLE10=Pie-In-The-Face Polka
TTITLE11=Pie-In-The-Face Polka
TTITLE12=The Sweetheart Tree
TTITLE13=Natalie
TTITLE14=Free!
TTITLE15=Sequence For Uncle Harold
TTITLE16=A Groovy Mood
TTITLE17=Off-Ramp To Nowhere
TTITLE18=Theme For Losers
TTITLE19=We
TTITLE20=W.A. Mozart, I Love You
TTITLE21=In And Out Of Love Montage
TTITLE22=Bench Warmer
TTITLE23=Dear David
TTITLE24=Natalie
EXTD=
EXTT0=
EXTT1=
EXTT2=
EXTT3=
EXTT4=
EXTT5=
EXTT6=
EXTT7=
EXTT8=
EXTT9=
EXTT10=
EXTT11=
EXTT12=
EXTT13=
EXTT14=
EXTT15=
EXTT16=
EXTT17=
EXTT18=
EXTT19=
EXTT20=
EXTT21=
EXTT22=
EXTT23=
EXTT24=
PLAYORDER=
